<mxfile host="app.diagrams.net" modified="2021-05-17T12:38:08.211Z" agent="5.0 (Windows NT 10.0; Win64; x64) AppleWebKit/537.36 (KHTML, like Gecko) Chrome/90.0.4430.212 Safari/537.36" etag="dqkz1kMSmC59g31OJNDH" version="14.6.13" type="github">
  <diagram id="oKvrGudTlkpN-na6x3bJ" name="Page-1">
    <mxGraphModel dx="6760" dy="1933" grid="1" gridSize="10" guides="1" tooltips="1" connect="1" arrows="1" fold="1" page="1" pageScale="1" pageWidth="3300" pageHeight="2339" background="#ffffff" math="0" shadow="1">
      <root>
        <mxCell id="0" />
        <mxCell id="1" parent="0" />
        <mxCell id="170" value="&lt;div&gt;VLAN_ADMIN_______10&lt;br&gt;&lt;/div&gt;" style="shape=mxgraph.gcp.extras.blue_hexagon;html=1;fillColor=#dae8fc;strokeColor=#6c8ebf;verticalLabelPosition=middle;verticalAlign=middle;align=left;shadow=1;labelPosition=right;fontSize=19;gradientColor=#7EA6E0;direction=south;" parent="1" vertex="1">
          <mxGeometry x="2897.435" y="547.565" width="30" height="34.87" as="geometry" />
        </mxCell>
        <mxCell id="16" value="VPNMPLS &amp;nbsp;NETENSIA" style="shape=mxgraph.gcp.networking.cloud_network;html=1;fillColor=#4387FD;gradientColor=none;strokeColor=none;verticalLabelPosition=bottom;verticalAlign=top;align=right;shadow=1;labelPosition=left;fontSize=26;" parent="1" vertex="1">
          <mxGeometry x="1261.5" y="997.5" width="129" height="115" as="geometry" />
        </mxCell>
        <mxCell id="45" value="&lt;div&gt;VLAN_PEDGO_______2&lt;br&gt;&lt;/div&gt;" style="shape=mxgraph.gcp.extras.blue_hexagon;html=1;fillColor=#d5e8d4;gradientColor=#97d077;strokeColor=#82b366;verticalLabelPosition=middle;verticalAlign=middle;align=left;shadow=1;labelPosition=right;fontSize=19;" parent="1" vertex="1">
          <mxGeometry x="2895" y="581" width="34.87" height="30" as="geometry" />
        </mxCell>
        <mxCell id="46" value="VLAN_GUEST_______7" style="shape=mxgraph.gcp.extras.blue_hexagon;html=1;fillColor=#ffcd28;gradientColor=#ffa500;strokeColor=#d79b00;verticalLabelPosition=middle;verticalAlign=middle;align=left;shadow=1;labelPosition=right;fontSize=19;" parent="1" vertex="1">
          <mxGeometry x="2896" y="612" width="34.87" height="30" as="geometry" />
        </mxCell>
        <mxCell id="47" value="VLAN_VOICE/IP______9" style="shape=mxgraph.gcp.extras.blue_hexagon;html=1;fillColor=#f8cecc;gradientColor=#ea6b66;strokeColor=#b85450;verticalLabelPosition=middle;verticalAlign=middle;align=left;shadow=1;labelPosition=right;fontSize=19;" parent="1" vertex="1">
          <mxGeometry x="2896" y="643" width="34.87" height="30" as="geometry" />
        </mxCell>
        <mxCell id="50" value="" style="endArrow=classic;startArrow=classic;html=1;fontSize=19;" parent="1" target="16" edge="1">
          <mxGeometry width="50" height="50" relative="1" as="geometry">
            <mxPoint x="512.5" y="917.5" as="sourcePoint" />
            <mxPoint x="842.5" y="997.5" as="targetPoint" />
          </mxGeometry>
        </mxCell>
        <mxCell id="51" value="" style="endArrow=classic;startArrow=classic;html=1;fontSize=19;" parent="1" target="16" edge="1">
          <mxGeometry width="50" height="50" relative="1" as="geometry">
            <mxPoint x="1327.5" y="771.5" as="sourcePoint" />
            <mxPoint x="1365.5" y="907.3051628764597" as="targetPoint" />
          </mxGeometry>
        </mxCell>
        <mxCell id="52" value="" style="endArrow=classic;startArrow=classic;html=1;fontSize=19;exitX=0.494;exitY=1.002;exitPerimeter=0;" parent="1" source="16" edge="1">
          <mxGeometry width="50" height="50" relative="1" as="geometry">
            <mxPoint x="1312.5" y="1167.5" as="sourcePoint" />
            <mxPoint x="1325.5" y="1457.5" as="targetPoint" />
          </mxGeometry>
        </mxCell>
        <mxCell id="53" value="" style="endArrow=classic;startArrow=classic;html=1;fontSize=19;exitX=0.948;exitY=0.694;exitPerimeter=0;" parent="1" source="16" edge="1">
          <mxGeometry width="50" height="50" relative="1" as="geometry">
            <mxPoint x="1452.5" y="1119.5" as="sourcePoint" />
            <mxPoint x="1812.5" y="1477.5" as="targetPoint" />
          </mxGeometry>
        </mxCell>
        <mxCell id="54" value="" style="endArrow=classic;startArrow=classic;html=1;fontSize=19;" parent="1" source="16" edge="1">
          <mxGeometry width="50" height="50" relative="1" as="geometry">
            <mxPoint x="1522.5" y="1017.5" as="sourcePoint" />
            <mxPoint x="2110" y="1170" as="targetPoint" />
          </mxGeometry>
        </mxCell>
        <mxCell id="57" value="" style="endArrow=classic;startArrow=classic;html=1;strokeColor=#CC0066;strokeWidth=2;fontSize=26;labelPosition=right;verticalLabelPosition=middle;align=left;verticalAlign=middle;dashed=1;" parent="1" edge="1">
          <mxGeometry width="50" height="50" relative="1" as="geometry">
            <mxPoint x="2897" y="759" as="sourcePoint" />
            <mxPoint x="2920" y="729" as="targetPoint" />
          </mxGeometry>
        </mxCell>
        <mxCell id="59" value="VPNMPLS" style="text;html=1;resizable=0;points=[];align=center;verticalAlign=middle;labelBackgroundColor=none;fontSize=20;" parent="57" vertex="1" connectable="0">
          <mxGeometry x="0.4199" y="-2" relative="1" as="geometry">
            <mxPoint x="72" y="43" as="offset" />
          </mxGeometry>
        </mxCell>
        <mxCell id="60" value="" style="endArrow=classic;startArrow=classic;html=1;strokeColor=#000000;strokeWidth=2;fontSize=26;labelPosition=right;verticalLabelPosition=middle;align=left;verticalAlign=middle;" parent="1" edge="1">
          <mxGeometry width="50" height="50" relative="1" as="geometry">
            <mxPoint x="2895.0000000000005" y="799" as="sourcePoint" />
            <mxPoint x="2918" y="769.0000000000001" as="targetPoint" />
          </mxGeometry>
        </mxCell>
        <mxCell id="61" value="OPEN_VPN" style="text;html=1;resizable=0;points=[];align=center;verticalAlign=middle;labelBackgroundColor=none;fontSize=20;" parent="60" vertex="1" connectable="0">
          <mxGeometry x="0.4199" y="-2" relative="1" as="geometry">
            <mxPoint x="79" y="-34" as="offset" />
          </mxGeometry>
        </mxCell>
        <mxCell id="163" value="PLERIN" style="text;html=1;strokeColor=none;fillColor=none;align=center;verticalAlign=middle;whiteSpace=wrap;fontSize=24;fontStyle=3" parent="1" vertex="1">
          <mxGeometry x="1099.5" y="754.5" width="180" height="20" as="geometry" />
        </mxCell>
        <mxCell id="165" value="BREST" style="text;html=1;strokeColor=none;fillColor=none;align=center;verticalAlign=middle;whiteSpace=wrap;fontSize=24;fontStyle=3" parent="1" vertex="1">
          <mxGeometry x="145.5" y="987.5" width="180" height="20" as="geometry" />
        </mxCell>
        <mxCell id="166" value="BRUZ" style="text;html=1;strokeColor=none;fillColor=none;align=center;verticalAlign=middle;whiteSpace=wrap;fontSize=24;fontStyle=3" parent="1" vertex="1">
          <mxGeometry x="2045.5" y="1299.5" width="180" height="20" as="geometry" />
        </mxCell>
        <mxCell id="167" value="LORIENT" style="text;html=1;strokeColor=none;fillColor=none;align=center;verticalAlign=middle;whiteSpace=wrap;fontSize=24;fontStyle=3" parent="1" vertex="1">
          <mxGeometry x="1099.5" y="1654.5" width="180" height="20" as="geometry" />
        </mxCell>
        <mxCell id="168" value="REDON" style="text;html=1;strokeColor=none;fillColor=none;align=center;verticalAlign=middle;whiteSpace=wrap;fontSize=24;fontStyle=3" parent="1" vertex="1">
          <mxGeometry x="1661.5" y="1617.5" width="180" height="20" as="geometry" />
        </mxCell>
        <mxCell id="169" value="QUIMPER" style="text;html=1;strokeColor=none;fillColor=none;align=center;verticalAlign=middle;whiteSpace=wrap;fontSize=24;fontStyle=3" parent="1" vertex="1">
          <mxGeometry x="542.5" y="1393.5" width="180" height="20" as="geometry" />
        </mxCell>
        <mxCell id="140" value="" style="shape=mxgraph.gcp.extras.blue_hexagon;html=1;fillColor=#dae8fc;gradientColor=#7ea6e0;strokeColor=#6c8ebf;verticalLabelPosition=bottom;verticalAlign=top;align=center;shadow=1;" parent="1" vertex="1">
          <mxGeometry x="1279.5" y="580.5" width="93" height="80" as="geometry" />
        </mxCell>
        <mxCell id="141" value="" style="shape=mxgraph.gcp.extras.blue_hexagon;html=1;fillColor=#ffcd28;gradientColor=#ffa500;strokeColor=#d79b00;verticalLabelPosition=bottom;verticalAlign=top;align=center;shadow=1;" parent="1" vertex="1">
          <mxGeometry x="1279.5" y="674.5" width="93" height="80" as="geometry" />
        </mxCell>
        <mxCell id="142" value="" style="shape=mxgraph.gcp.extras.blue_hexagon;html=1;fillColor=#f8cecc;gradientColor=#ea6b66;strokeColor=#b85450;verticalLabelPosition=bottom;verticalAlign=top;align=center;shadow=1;" parent="1" vertex="1">
          <mxGeometry x="1360.5" y="630.5" width="93" height="80" as="geometry" />
        </mxCell>
        <mxCell id="143" value="" style="shape=mxgraph.gcp.extras.blue_hexagon;html=1;fillColor=#d5e8d4;gradientColor=#97d077;strokeColor=#82b366;verticalLabelPosition=bottom;verticalAlign=top;align=center;shadow=1;" parent="1" vertex="1">
          <mxGeometry x="1198.5" y="626.5" width="93" height="80" as="geometry" />
        </mxCell>
        <mxCell id="135" value="" style="shape=mxgraph.gcp.extras.blue_hexagon;html=1;fillColor=#dae8fc;gradientColor=#7ea6e0;strokeColor=#6c8ebf;verticalLabelPosition=bottom;verticalAlign=top;align=center;shadow=1;" parent="1" vertex="1">
          <mxGeometry x="2213.5" y="1125.5" width="93" height="80" as="geometry" />
        </mxCell>
        <mxCell id="136" value="" style="shape=mxgraph.gcp.extras.blue_hexagon;html=1;fillColor=#ffcd28;gradientColor=#ffa500;strokeColor=#d79b00;verticalLabelPosition=bottom;verticalAlign=top;align=center;shadow=1;" parent="1" vertex="1">
          <mxGeometry x="2213.5" y="1219.5" width="93" height="80" as="geometry" />
        </mxCell>
        <mxCell id="137" value="" style="shape=mxgraph.gcp.extras.blue_hexagon;html=1;fillColor=#f8cecc;gradientColor=#ea6b66;strokeColor=#b85450;verticalLabelPosition=bottom;verticalAlign=top;align=center;shadow=1;" parent="1" vertex="1">
          <mxGeometry x="2294.5" y="1175.5" width="93" height="80" as="geometry" />
        </mxCell>
        <mxCell id="138" value="" style="shape=mxgraph.gcp.extras.blue_hexagon;html=1;fillColor=#d5e8d4;gradientColor=#97d077;strokeColor=#82b366;verticalLabelPosition=bottom;verticalAlign=top;align=center;shadow=1;" parent="1" vertex="1">
          <mxGeometry x="2132.5" y="1171.5" width="93" height="80" as="geometry" />
        </mxCell>
        <mxCell id="130" value="" style="shape=mxgraph.gcp.extras.blue_hexagon;html=1;fillColor=#dae8fc;gradientColor=#7ea6e0;strokeColor=#6c8ebf;verticalLabelPosition=bottom;verticalAlign=top;align=center;shadow=1;" parent="1" vertex="1">
          <mxGeometry x="1829.5" y="1443.5" width="93" height="80" as="geometry" />
        </mxCell>
        <mxCell id="131" value="" style="shape=mxgraph.gcp.extras.blue_hexagon;html=1;fillColor=#ffcd28;gradientColor=#ffa500;strokeColor=#d79b00;verticalLabelPosition=bottom;verticalAlign=top;align=center;shadow=1;" parent="1" vertex="1">
          <mxGeometry x="1829.5" y="1537.5" width="93" height="80" as="geometry" />
        </mxCell>
        <mxCell id="132" value="" style="shape=mxgraph.gcp.extras.blue_hexagon;html=1;fillColor=#f8cecc;gradientColor=#ea6b66;strokeColor=#b85450;verticalLabelPosition=bottom;verticalAlign=top;align=center;shadow=1;" parent="1" vertex="1">
          <mxGeometry x="1910.5" y="1493.5" width="93" height="80" as="geometry" />
        </mxCell>
        <mxCell id="133" value="" style="shape=mxgraph.gcp.extras.blue_hexagon;html=1;fillColor=#d5e8d4;gradientColor=#97d077;strokeColor=#82b366;verticalLabelPosition=bottom;verticalAlign=top;align=center;shadow=1;" parent="1" vertex="1">
          <mxGeometry x="1748.5" y="1489.5" width="93" height="80" as="geometry" />
        </mxCell>
        <mxCell id="145" value="" style="shape=mxgraph.gcp.extras.blue_hexagon;html=1;fillColor=#dae8fc;gradientColor=#7ea6e0;strokeColor=#6c8ebf;verticalLabelPosition=bottom;verticalAlign=top;align=center;shadow=1;" parent="1" vertex="1">
          <mxGeometry x="325.5" y="823.5" width="93" height="80" as="geometry" />
        </mxCell>
        <mxCell id="146" value="" style="shape=mxgraph.gcp.extras.blue_hexagon;html=1;fillColor=#ffcd28;gradientColor=#ffa500;strokeColor=#d79b00;verticalLabelPosition=bottom;verticalAlign=top;align=center;shadow=1;" parent="1" vertex="1">
          <mxGeometry x="325.5" y="917.5" width="93" height="80" as="geometry" />
        </mxCell>
        <mxCell id="147" value="" style="shape=mxgraph.gcp.extras.blue_hexagon;html=1;fillColor=#f8cecc;gradientColor=#ea6b66;strokeColor=#b85450;verticalLabelPosition=bottom;verticalAlign=top;align=center;shadow=1;" parent="1" vertex="1">
          <mxGeometry x="406.5" y="873.5" width="93" height="80" as="geometry" />
        </mxCell>
        <mxCell id="148" value="" style="shape=mxgraph.gcp.extras.blue_hexagon;html=1;fillColor=#d5e8d4;gradientColor=#97d077;strokeColor=#82b366;verticalLabelPosition=bottom;verticalAlign=top;align=center;shadow=1;" parent="1" vertex="1">
          <mxGeometry x="244.5" y="869.5" width="93" height="80" as="geometry" />
        </mxCell>
        <mxCell id="150" value="" style="shape=mxgraph.gcp.extras.blue_hexagon;html=1;fillColor=#dae8fc;gradientColor=#7ea6e0;strokeColor=#6c8ebf;verticalLabelPosition=bottom;verticalAlign=top;align=center;shadow=1;" parent="1" vertex="1">
          <mxGeometry x="710.5" y="1219.5" width="93" height="80" as="geometry" />
        </mxCell>
        <mxCell id="151" value="" style="shape=mxgraph.gcp.extras.blue_hexagon;html=1;fillColor=#ffcd28;gradientColor=#ffa500;strokeColor=#d79b00;verticalLabelPosition=bottom;verticalAlign=top;align=center;shadow=1;" parent="1" vertex="1">
          <mxGeometry x="710.5" y="1313.5" width="93" height="80" as="geometry" />
        </mxCell>
        <mxCell id="152" value="" style="shape=mxgraph.gcp.extras.blue_hexagon;html=1;fillColor=#f8cecc;gradientColor=#ea6b66;strokeColor=#b85450;verticalLabelPosition=bottom;verticalAlign=top;align=center;shadow=1;" parent="1" vertex="1">
          <mxGeometry x="791.5" y="1269.5" width="93" height="80" as="geometry" />
        </mxCell>
        <mxCell id="153" value="" style="shape=mxgraph.gcp.extras.blue_hexagon;html=1;fillColor=#d5e8d4;gradientColor=#97d077;strokeColor=#82b366;verticalLabelPosition=bottom;verticalAlign=top;align=center;shadow=1;" parent="1" vertex="1">
          <mxGeometry x="629.5" y="1265.5" width="93" height="80" as="geometry" />
        </mxCell>
        <mxCell id="124" value="" style="shape=mxgraph.gcp.extras.blue_hexagon;html=1;fillColor=#dae8fc;gradientColor=#7ea6e0;strokeColor=#6c8ebf;verticalLabelPosition=bottom;verticalAlign=top;align=center;shadow=1;" parent="1" vertex="1">
          <mxGeometry x="1279.5" y="1480.5" width="93" height="80" as="geometry" />
        </mxCell>
        <mxCell id="125" value="" style="shape=mxgraph.gcp.extras.blue_hexagon;html=1;fillColor=#ffcd28;gradientColor=#ffa500;strokeColor=#d79b00;verticalLabelPosition=bottom;verticalAlign=top;align=center;shadow=1;" parent="1" vertex="1">
          <mxGeometry x="1279.5" y="1574.5" width="93" height="80" as="geometry" />
        </mxCell>
        <mxCell id="126" value="" style="shape=mxgraph.gcp.extras.blue_hexagon;html=1;fillColor=#f8cecc;gradientColor=#ea6b66;strokeColor=#b85450;verticalLabelPosition=bottom;verticalAlign=top;align=center;shadow=1;" parent="1" vertex="1">
          <mxGeometry x="1360.5" y="1530.5" width="93" height="80" as="geometry" />
        </mxCell>
        <mxCell id="127" value="" style="shape=mxgraph.gcp.extras.blue_hexagon;html=1;fillColor=#d5e8d4;gradientColor=#97d077;strokeColor=#82b366;verticalLabelPosition=bottom;verticalAlign=top;align=center;shadow=1;" parent="1" vertex="1">
          <mxGeometry x="1198.5" y="1526.5" width="93" height="80" as="geometry" />
        </mxCell>
        <mxCell id="173" value="" style="shape=mxgraph.gcp.extras.blue_hexagon;html=1;fillColor=#e1d5e7;strokeColor=#9673A6;verticalLabelPosition=bottom;verticalAlign=top;align=center;shadow=1;gradientDirection=south;gradientColor=#9673A6;" parent="1" vertex="1">
          <mxGeometry x="1360.5" y="1439.5" width="93" height="80" as="geometry" />
        </mxCell>
        <mxCell id="174" value="" style="shape=mxgraph.gcp.extras.blue_hexagon;html=1;fillColor=#e1d5e7;strokeColor=#9673A6;verticalLabelPosition=bottom;verticalAlign=top;align=center;shadow=1;gradientDirection=south;gradientColor=#9673A6;" parent="1" vertex="1">
          <mxGeometry x="1910.5" y="1406.5" width="93" height="80" as="geometry" />
        </mxCell>
        <mxCell id="175" value="" style="shape=mxgraph.gcp.extras.blue_hexagon;html=1;fillColor=#e1d5e7;strokeColor=#9673A6;verticalLabelPosition=bottom;verticalAlign=top;align=center;shadow=1;gradientDirection=south;gradientColor=#9673A6;" parent="1" vertex="1">
          <mxGeometry x="2294.5" y="1085.5" width="93" height="80" as="geometry" />
        </mxCell>
        <mxCell id="176" value="" style="shape=mxgraph.gcp.extras.blue_hexagon;html=1;fillColor=#e1d5e7;strokeColor=#9673A6;verticalLabelPosition=bottom;verticalAlign=top;align=center;shadow=1;gradientDirection=south;gradientColor=#9673A6;" parent="1" vertex="1">
          <mxGeometry x="1360.5" y="541.5" width="93" height="80" as="geometry" />
        </mxCell>
        <mxCell id="177" value="" style="shape=mxgraph.gcp.extras.blue_hexagon;html=1;fillColor=#e1d5e7;strokeColor=#9673A6;verticalLabelPosition=bottom;verticalAlign=top;align=center;shadow=1;gradientDirection=south;gradientColor=#9673A6;" parent="1" vertex="1">
          <mxGeometry x="406.5" y="783.5" width="93" height="80" as="geometry" />
        </mxCell>
        <mxCell id="178" value="VLAN_MGMT_______30" style="shape=mxgraph.gcp.extras.blue_hexagon;html=1;fillColor=#e1d5e7;strokeColor=#9673A6;verticalLabelPosition=middle;verticalAlign=middle;align=left;shadow=1;labelPosition=right;fontSize=19;gradientColor=#9673A6;" parent="1" vertex="1">
          <mxGeometry x="2895" y="672" width="34.87" height="30" as="geometry" />
        </mxCell>
        <mxCell id="Orf89W3IS2XqQ4CfPEEr-243" value="" style="shape=mxgraph.gcp.extras.blue_hexagon;html=1;fillColor=#e1d5e7;strokeColor=#9673A6;verticalLabelPosition=bottom;verticalAlign=top;align=center;shadow=1;gradientDirection=south;gradientColor=#9673A6;" parent="1" vertex="1">
          <mxGeometry x="791.5" y="1179.5" width="93" height="80" as="geometry" />
        </mxCell>
        <mxCell id="Orf89W3IS2XqQ4CfPEEr-274" value="" style="shape=mxgraph.gcp.extras.blue_hexagon;html=1;fillColor=#dae8fc;gradientColor=#7ea6e0;strokeColor=#6c8ebf;verticalLabelPosition=bottom;verticalAlign=top;align=center;shadow=1;" parent="1" vertex="1">
          <mxGeometry x="3033.5" y="1175.5" width="93" height="80" as="geometry" />
        </mxCell>
        <mxCell id="Orf89W3IS2XqQ4CfPEEr-275" value="" style="shape=mxgraph.gcp.extras.blue_hexagon;html=1;fillColor=#ffcd28;gradientColor=#ffa500;strokeColor=#d79b00;verticalLabelPosition=bottom;verticalAlign=top;align=center;shadow=1;" parent="1" vertex="1">
          <mxGeometry x="3033.5" y="1269.5" width="93" height="80" as="geometry" />
        </mxCell>
        <mxCell id="Orf89W3IS2XqQ4CfPEEr-276" value="" style="shape=mxgraph.gcp.extras.blue_hexagon;html=1;fillColor=#f8cecc;gradientColor=#ea6b66;strokeColor=#b85450;verticalLabelPosition=bottom;verticalAlign=top;align=center;shadow=1;" parent="1" vertex="1">
          <mxGeometry x="3114.5" y="1225.5" width="93" height="80" as="geometry" />
        </mxCell>
        <mxCell id="Orf89W3IS2XqQ4CfPEEr-277" value="" style="shape=mxgraph.gcp.extras.blue_hexagon;html=1;fillColor=#d5e8d4;gradientColor=#97d077;strokeColor=#82b366;verticalLabelPosition=bottom;verticalAlign=top;align=center;shadow=1;" parent="1" vertex="1">
          <mxGeometry x="2952.5" y="1221.5" width="93" height="80" as="geometry" />
        </mxCell>
        <mxCell id="Orf89W3IS2XqQ4CfPEEr-278" value="" style="shape=mxgraph.gcp.extras.blue_hexagon;html=1;fillColor=#e1d5e7;strokeColor=#9673A6;verticalLabelPosition=bottom;verticalAlign=top;align=center;shadow=1;gradientDirection=south;gradientColor=#9673A6;" parent="1" vertex="1">
          <mxGeometry x="3114.5" y="1134.5" width="93" height="80" as="geometry" />
        </mxCell>
        <mxCell id="Orf89W3IS2XqQ4CfPEEr-284" value="" style="endArrow=classic;startArrow=classic;html=1;fontSize=19;strokeWidth=2;strokeColor=#CC0066;rounded=1;dashed=1;" parent="1" edge="1">
          <mxGeometry width="50" height="50" relative="1" as="geometry">
            <mxPoint x="3080" y="1357.5" as="sourcePoint" />
            <mxPoint x="2262.5" y="1307.5" as="targetPoint" />
            <Array as="points">
              <mxPoint x="3080" y="1687.5" />
              <mxPoint x="2262.5" y="1687.5" />
            </Array>
          </mxGeometry>
        </mxCell>
        <mxCell id="Orf89W3IS2XqQ4CfPEEr-286" value="VITRE" style="text;html=1;strokeColor=none;fillColor=none;align=center;verticalAlign=middle;whiteSpace=wrap;fontSize=24;fontStyle=3" parent="1" vertex="1">
          <mxGeometry x="2853.5" y="1343.5" width="180" height="20" as="geometry" />
        </mxCell>
        <mxCell id="a-7iS3ufgLYk0n0HEkrF-179" value="&lt;font style=&quot;font-size: 72px&quot;&gt;X&lt;/font&gt;" style="ellipse;whiteSpace=wrap;html=1;aspect=fixed;" parent="1" vertex="1">
          <mxGeometry x="450" y="1538" width="80" height="80" as="geometry" />
        </mxCell>
        <mxCell id="a-7iS3ufgLYk0n0HEkrF-180" value="&#xa;&#xa;&lt;span style=&quot;color: rgb(0, 0, 0); font-family: helvetica; font-size: 36px; font-style: normal; font-weight: 400; letter-spacing: normal; text-align: center; text-indent: 0px; text-transform: none; word-spacing: 0px; background-color: rgb(248, 249, 250); display: inline; float: none;&quot;&gt;machines&lt;/span&gt;&#xa;&#xa;" style="rounded=1;whiteSpace=wrap;html=1;" parent="1" vertex="1">
          <mxGeometry x="260" y="1760" width="280" height="60" as="geometry" />
        </mxCell>
        <mxCell id="a-7iS3ufgLYk0n0HEkrF-181" value="" style="endArrow=classic;startArrow=classic;html=1;exitX=0.5;exitY=0;exitDx=0;exitDy=0;" parent="1" source="a-7iS3ufgLYk0n0HEkrF-180" edge="1">
          <mxGeometry width="50" height="50" relative="1" as="geometry">
            <mxPoint x="1190" y="1420" as="sourcePoint" />
            <mxPoint x="480" y="1620" as="targetPoint" />
          </mxGeometry>
        </mxCell>
        <mxCell id="a-7iS3ufgLYk0n0HEkrF-182" value="" style="endArrow=classic;startArrow=classic;html=1;exitX=1;exitY=0;exitDx=0;exitDy=0;" parent="1" source="a-7iS3ufgLYk0n0HEkrF-179" edge="1">
          <mxGeometry width="50" height="50" relative="1" as="geometry">
            <mxPoint x="1190" y="1420" as="sourcePoint" />
            <mxPoint x="680" y="1350" as="targetPoint" />
          </mxGeometry>
        </mxCell>
        <mxCell id="a-7iS3ufgLYk0n0HEkrF-183" value="&lt;font style=&quot;font-size: 72px&quot;&gt;X&lt;/font&gt;" style="ellipse;whiteSpace=wrap;html=1;aspect=fixed;" parent="1" vertex="1">
          <mxGeometry x="1130" y="420" width="80" height="80" as="geometry" />
        </mxCell>
        <mxCell id="a-7iS3ufgLYk0n0HEkrF-184" value="&lt;span style=&quot;font-size: 36px&quot;&gt;machines&lt;/span&gt;" style="rounded=1;whiteSpace=wrap;html=1;" parent="1" vertex="1">
          <mxGeometry x="870" y="230" width="250" height="70" as="geometry" />
        </mxCell>
        <mxCell id="a-7iS3ufgLYk0n0HEkrF-185" value="" style="endArrow=classic;startArrow=classic;html=1;entryX=1;entryY=1;entryDx=0;entryDy=0;" parent="1" target="a-7iS3ufgLYk0n0HEkrF-183" edge="1">
          <mxGeometry width="50" height="50" relative="1" as="geometry">
            <mxPoint x="1230" y="630" as="sourcePoint" />
            <mxPoint x="1260" y="550" as="targetPoint" />
          </mxGeometry>
        </mxCell>
        <mxCell id="a-7iS3ufgLYk0n0HEkrF-186" value="" style="endArrow=classic;startArrow=classic;html=1;entryX=0.56;entryY=1;entryDx=0;entryDy=0;entryPerimeter=0;exitX=0;exitY=0;exitDx=0;exitDy=0;" parent="1" source="a-7iS3ufgLYk0n0HEkrF-183" target="a-7iS3ufgLYk0n0HEkrF-184" edge="1">
          <mxGeometry width="50" height="50" relative="1" as="geometry">
            <mxPoint x="1100" y="590" as="sourcePoint" />
            <mxPoint x="1150" y="850" as="targetPoint" />
          </mxGeometry>
        </mxCell>
        <mxCell id="a-7iS3ufgLYk0n0HEkrF-187" value="&lt;font style=&quot;font-size: 72px&quot;&gt;X&lt;/font&gt;" style="ellipse;whiteSpace=wrap;html=1;aspect=fixed;" parent="1" vertex="1">
          <mxGeometry x="140" y="710.5" width="80" height="80" as="geometry" />
        </mxCell>
        <mxCell id="a-7iS3ufgLYk0n0HEkrF-188" value="" style="endArrow=classic;startArrow=classic;html=1;entryX=0.5;entryY=1;entryDx=0;entryDy=0;" parent="1" target="a-7iS3ufgLYk0n0HEkrF-187" edge="1">
          <mxGeometry width="50" height="50" relative="1" as="geometry">
            <mxPoint x="260" y="880" as="sourcePoint" />
            <mxPoint x="200" y="780" as="targetPoint" />
          </mxGeometry>
        </mxCell>
        <mxCell id="a-7iS3ufgLYk0n0HEkrF-189" value="&lt;font style=&quot;font-size: 36px&quot;&gt;machines&lt;/font&gt;" style="rounded=1;whiteSpace=wrap;html=1;" parent="1" vertex="1">
          <mxGeometry x="-70" y="440" width="310" height="70" as="geometry" />
        </mxCell>
        <mxCell id="a-7iS3ufgLYk0n0HEkrF-190" value="" style="endArrow=classic;startArrow=classic;html=1;entryX=0.558;entryY=1.079;entryDx=0;entryDy=0;entryPerimeter=0;exitX=0.5;exitY=0;exitDx=0;exitDy=0;" parent="1" source="a-7iS3ufgLYk0n0HEkrF-187" target="a-7iS3ufgLYk0n0HEkrF-189" edge="1">
          <mxGeometry width="50" height="50" relative="1" as="geometry">
            <mxPoint x="900" y="1040" as="sourcePoint" />
            <mxPoint x="950" y="990" as="targetPoint" />
          </mxGeometry>
        </mxCell>
        <mxCell id="a-7iS3ufgLYk0n0HEkrF-191" value="&lt;font style=&quot;font-size: 72px&quot;&gt;X&lt;/font&gt;" style="ellipse;whiteSpace=wrap;html=1;aspect=fixed;" parent="1" vertex="1">
          <mxGeometry x="1279.5" y="1790" width="80" height="80" as="geometry" />
        </mxCell>
        <mxCell id="a-7iS3ufgLYk0n0HEkrF-192" value="&lt;font style=&quot;font-size: 72px&quot;&gt;X&lt;/font&gt;" style="ellipse;whiteSpace=wrap;html=1;aspect=fixed;" parent="1" vertex="1">
          <mxGeometry x="1910.5" y="1780" width="80" height="80" as="geometry" />
        </mxCell>
        <mxCell id="a-7iS3ufgLYk0n0HEkrF-193" value="&lt;font style=&quot;font-size: 72px&quot;&gt;X&lt;/font&gt;" style="ellipse;whiteSpace=wrap;html=1;aspect=fixed;" parent="1" vertex="1">
          <mxGeometry x="2849.87" y="1005.5" width="80" height="80" as="geometry" />
        </mxCell>
        <mxCell id="a-7iS3ufgLYk0n0HEkrF-194" value="&lt;font style=&quot;font-size: 72px&quot;&gt;X&lt;/font&gt;" style="ellipse;whiteSpace=wrap;html=1;aspect=fixed;" parent="1" vertex="1">
          <mxGeometry x="2260" y="823.5" width="80" height="80" as="geometry" />
        </mxCell>
        <mxCell id="a-7iS3ufgLYk0n0HEkrF-195" value="" style="endArrow=classic;startArrow=classic;html=1;entryX=0.132;entryY=0.803;entryDx=0;entryDy=0;entryPerimeter=0;" parent="1" target="16" edge="1">
          <mxGeometry width="50" height="50" relative="1" as="geometry">
            <mxPoint x="890" y="1260" as="sourcePoint" />
            <mxPoint x="1270" y="1100" as="targetPoint" />
          </mxGeometry>
        </mxCell>
        <mxCell id="a-7iS3ufgLYk0n0HEkrF-196" value="" style="endArrow=classic;startArrow=classic;html=1;exitX=0.5;exitY=0;exitDx=0;exitDy=0;" parent="1" source="a-7iS3ufgLYk0n0HEkrF-191" edge="1">
          <mxGeometry width="50" height="50" relative="1" as="geometry">
            <mxPoint x="1340" y="1400" as="sourcePoint" />
            <mxPoint x="1240" y="1610" as="targetPoint" />
          </mxGeometry>
        </mxCell>
        <mxCell id="a-7iS3ufgLYk0n0HEkrF-197" value="" style="endArrow=classic;startArrow=classic;html=1;exitX=0;exitY=0;exitDx=0;exitDy=0;" parent="1" source="a-7iS3ufgLYk0n0HEkrF-192" edge="1">
          <mxGeometry width="50" height="50" relative="1" as="geometry">
            <mxPoint x="1590" y="1410" as="sourcePoint" />
            <mxPoint x="1780" y="1570" as="targetPoint" />
          </mxGeometry>
        </mxCell>
        <mxCell id="a-7iS3ufgLYk0n0HEkrF-198" value="" style="endArrow=classic;startArrow=classic;html=1;exitX=0.551;exitY=0.008;exitDx=0;exitDy=0;exitPerimeter=0;" parent="1" source="138" edge="1">
          <mxGeometry width="50" height="50" relative="1" as="geometry">
            <mxPoint x="1940" y="1410" as="sourcePoint" />
            <mxPoint x="2290" y="910" as="targetPoint" />
          </mxGeometry>
        </mxCell>
        <mxCell id="a-7iS3ufgLYk0n0HEkrF-199" value="" style="endArrow=classic;startArrow=classic;html=1;entryX=1;entryY=1;entryDx=0;entryDy=0;" parent="1" target="a-7iS3ufgLYk0n0HEkrF-193" edge="1">
          <mxGeometry width="50" height="50" relative="1" as="geometry">
            <mxPoint x="2980" y="1230" as="sourcePoint" />
            <mxPoint x="1910" y="1400" as="targetPoint" />
          </mxGeometry>
        </mxCell>
        <mxCell id="a-7iS3ufgLYk0n0HEkrF-200" value="&#xa;&#xa;&lt;span style=&quot;color: rgb(0, 0, 0); font-family: helvetica; font-size: 36px; font-style: normal; font-weight: 400; letter-spacing: normal; text-align: center; text-indent: 0px; text-transform: none; word-spacing: 0px; background-color: rgb(248, 249, 250); display: inline; float: none;&quot;&gt;machines&lt;/span&gt;&#xa;&#xa;" style="rounded=1;whiteSpace=wrap;html=1;" parent="1" vertex="1">
          <mxGeometry x="1210" y="1970" width="250" height="60" as="geometry" />
        </mxCell>
        <mxCell id="a-7iS3ufgLYk0n0HEkrF-201" value="&lt;span style=&quot;font-size: 36px&quot;&gt;machines&lt;/span&gt;" style="rounded=1;whiteSpace=wrap;html=1;" parent="1" vertex="1">
          <mxGeometry x="2213.5" y="573" width="290" height="69" as="geometry" />
        </mxCell>
        <mxCell id="a-7iS3ufgLYk0n0HEkrF-202" value="&lt;span style=&quot;font-size: 36px&quot;&gt;machines&lt;/span&gt;" style="rounded=1;whiteSpace=wrap;html=1;" parent="1" vertex="1">
          <mxGeometry x="2710" y="863.5" width="330" height="60" as="geometry" />
        </mxCell>
        <mxCell id="a-7iS3ufgLYk0n0HEkrF-203" value="&lt;span style=&quot;font-size: 36px&quot;&gt;machines&lt;/span&gt;" style="rounded=1;whiteSpace=wrap;html=1;" parent="1" vertex="1">
          <mxGeometry x="1970" y="1980" width="300" height="60" as="geometry" />
        </mxCell>
        <mxCell id="a-7iS3ufgLYk0n0HEkrF-204" value="" style="endArrow=classic;startArrow=classic;html=1;entryX=0.5;entryY=0;entryDx=0;entryDy=0;exitX=0.306;exitY=1;exitDx=0;exitDy=0;exitPerimeter=0;" parent="1" source="a-7iS3ufgLYk0n0HEkrF-191" target="a-7iS3ufgLYk0n0HEkrF-200" edge="1">
          <mxGeometry width="50" height="50" relative="1" as="geometry">
            <mxPoint x="1720" y="1380" as="sourcePoint" />
            <mxPoint x="1770" y="1330" as="targetPoint" />
          </mxGeometry>
        </mxCell>
        <mxCell id="a-7iS3ufgLYk0n0HEkrF-205" value="" style="endArrow=classic;startArrow=classic;html=1;entryX=1;entryY=1;entryDx=0;entryDy=0;exitX=0.5;exitY=0;exitDx=0;exitDy=0;" parent="1" source="a-7iS3ufgLYk0n0HEkrF-203" target="a-7iS3ufgLYk0n0HEkrF-192" edge="1">
          <mxGeometry width="50" height="50" relative="1" as="geometry">
            <mxPoint x="2060" y="1930" as="sourcePoint" />
            <mxPoint x="2110" y="1880" as="targetPoint" />
          </mxGeometry>
        </mxCell>
        <mxCell id="a-7iS3ufgLYk0n0HEkrF-206" value="" style="endArrow=classic;startArrow=classic;html=1;exitX=1;exitY=0;exitDx=0;exitDy=0;" parent="1" source="a-7iS3ufgLYk0n0HEkrF-194" edge="1">
          <mxGeometry width="50" height="50" relative="1" as="geometry">
            <mxPoint x="1720" y="1380" as="sourcePoint" />
            <mxPoint x="2350" y="650" as="targetPoint" />
          </mxGeometry>
        </mxCell>
        <mxCell id="a-7iS3ufgLYk0n0HEkrF-207" value="" style="endArrow=classic;startArrow=classic;html=1;entryX=0.5;entryY=1;entryDx=0;entryDy=0;exitX=0.5;exitY=0;exitDx=0;exitDy=0;" parent="1" source="a-7iS3ufgLYk0n0HEkrF-193" target="a-7iS3ufgLYk0n0HEkrF-202" edge="1">
          <mxGeometry width="50" height="50" relative="1" as="geometry">
            <mxPoint x="1720" y="1380" as="sourcePoint" />
            <mxPoint x="1770" y="1330" as="targetPoint" />
          </mxGeometry>
        </mxCell>
        <mxCell id="c4au4TbnDCe51T7IeHpb-179" value="&lt;font style=&quot;font-size: 24px&quot;&gt;X&lt;/font&gt;" style="ellipse;whiteSpace=wrap;html=1;aspect=fixed;" vertex="1" parent="1">
          <mxGeometry x="2896" y="510" width="30" height="30" as="geometry" />
        </mxCell>
        <mxCell id="c4au4TbnDCe51T7IeHpb-182" value="Routeur_industriel" style="text;html=1;strokeColor=none;fillColor=none;align=center;verticalAlign=middle;whiteSpace=wrap;rounded=0;fontSize=19;" vertex="1" parent="1">
          <mxGeometry x="2990" y="515" width="40" height="20" as="geometry" />
        </mxCell>
      </root>
    </mxGraphModel>
  </diagram>
</mxfile>
